<svg width="144" height="51" viewBox="0 0 144 51" fill="none" xmlns="http://www.w3.org/2000/svg">
<mask id="mask0_2400_3047" style="mask-type:luminance" maskUnits="userSpaceOnUse" x="0" y="0" width="144" height="51">
<path d="M143.679 0H0V51H143.679V0Z" fill="white"></path>
</mask>
<g mask="url(#mask0_2400_3047)">
<path d="M123.012 0V51H143.678V43.9001H130.588V28.694H140.99V21.5956H130.588V7.09986H143.678V0H123.012Z" fill="white"></path>
<path d="M120.563 50.9808C119.76 49.1381 119.687 47.362 119.687 44.9495V35.9788C119.687 30.8001 118.374 27.0378 114.36 25.4068C117.936 23.7757 119.616 20.4411 119.616 15.3305V11.4261C119.616 3.76232 116.04 0 107.721 0H95.6094V50.9778H103.637V29.4473H106.409C110.058 29.4473 111.661 31.1509 111.661 35.7628V44.874C111.661 48.9176 111.952 49.699 112.389 50.9778H120.56L120.563 50.9808ZM107.505 7.09838C110.348 7.09838 111.588 8.66133 111.588 12.2076V17.1051C111.588 21.0776 109.765 22.3563 106.772 22.3563H103.633V7.10134H107.5L107.503 7.09838H107.505Z" fill="white"></path>
<path d="M91.6026 0H83.5762V50.9778H91.6026V0Z" fill="white"></path>
<path d="M55.668 0V38.4861C55.668 46.437 59.7559 50.9778 67.6343 50.9778C75.5127 50.9778 79.6021 46.434 79.6021 38.4861V0H72.0153V38.9819C72.0153 42.5326 70.4109 43.8069 67.8563 43.8069C65.3017 43.8069 63.6973 42.5296 63.6973 38.9819V0H55.6695H55.668Z" fill="white"></path>
<path d="M0.220529 12.5361C0.220529 26.7817 15.9151 28.7073 15.9151 38.9627C15.9151 42.5252 14.3092 43.8054 11.7532 43.8054C9.19711 43.8054 7.59124 42.5237 7.59124 38.9627V35.4001H0V38.4654C0 46.4429 4.08941 51.0015 11.9737 51.0015C19.858 51.0015 23.9474 46.4444 23.9474 38.4654C23.9474 24.2197 8.25283 22.2971 8.25283 12.0388C8.25283 8.47632 9.71365 7.12354 12.2668 7.12354C14.8199 7.12354 16.2807 8.4778 16.2807 12.0388V14.105H23.8734V12.5376C23.8719 4.56155 19.8565 0 12.0448 0C4.23298 0 0.220529 4.56155 0.220529 12.5361Z" fill="white"></path>
<path d="M52.7301 44.0215C51.8169 44.0215 51.2589 43.946 50.8815 43.5923C51.1508 42.7575 51.3447 41.8621 51.4661 40.903C51.4705 40.8704 51.4764 40.8409 51.4794 40.8083C51.5223 40.4649 51.5519 40.1127 51.5741 39.7515C51.5771 39.6953 51.5815 39.639 51.5845 39.5843C51.6052 39.2202 51.6185 38.8502 51.6185 38.4683V12.5376C51.6185 12.2031 51.6082 11.8745 51.5919 11.5519C51.5889 11.4794 51.5845 11.4068 51.5815 11.3388C51.5416 10.6713 51.4735 10.0319 51.3684 9.41764C51.3684 9.40136 51.3625 9.38804 51.3625 9.37176C50.5632 4.71696 47.9006 1.64731 43.5862 0.501741V0.491381C43.4811 0.46474 43.3731 0.445499 43.2636 0.421818C43.0564 0.372976 42.8432 0.327094 42.6301 0.287132C42.6197 0.287132 42.6109 0.284172 42.6005 0.281212C41.9567 0.159847 41.2773 0.0769633 40.5669 0.0355215C40.5373 0.0355215 40.5121 0.0355215 40.4811 0.0325614C40.1332 0.0133206 39.7825 0 39.4213 0C39.0602 0 38.7079 0.0133206 38.3601 0.0325614C38.3305 0.0325614 38.3009 0.0325614 38.2743 0.0355215C37.5653 0.0784433 36.8889 0.161327 36.2422 0.281212C36.2318 0.281212 36.2229 0.284172 36.2126 0.287132C35.995 0.327094 35.7848 0.372976 35.5776 0.421818C35.4725 0.445499 35.3615 0.46474 35.2564 0.491381V0.501741C30.9421 1.64731 28.2794 4.71252 27.4802 9.37176C27.4802 9.38804 27.4728 9.40136 27.4728 9.41764C27.3707 10.0319 27.2996 10.6713 27.2597 11.3388C27.2567 11.4113 27.2537 11.4794 27.2493 11.5519C27.233 11.8745 27.2227 12.2016 27.2227 12.5376V38.4654C27.2227 38.8457 27.236 39.2172 27.2552 39.5813C27.2552 39.6376 27.2626 39.6923 27.2641 39.7486C27.2878 40.1097 27.3203 40.462 27.3588 40.8068C27.3618 40.8394 27.3692 40.8719 27.3721 40.9015C28.0545 46.3008 31.093 49.7286 36.1859 50.707C36.2155 50.7129 36.2451 50.7173 36.2777 50.7232C36.59 50.7824 36.9052 50.8313 37.2338 50.8712H37.2397C37.555 50.9112 37.8806 50.9364 38.2121 50.9556C38.2802 50.9586 38.3498 50.963 38.4149 50.9689C38.7435 50.9852 39.078 50.9985 39.4199 50.9985C39.7617 50.9985 40.0962 50.9852 40.4248 50.9689C40.4944 50.966 40.5625 50.963 40.6291 50.9556C40.9606 50.9364 41.2862 50.9068 41.6015 50.8712H41.6074C41.933 50.8313 42.2512 50.7795 42.5635 50.7232C42.5931 50.7173 42.6257 50.7129 42.6553 50.707C44.1768 50.4139 45.5118 49.9062 46.6618 49.1899C47.9287 50.3429 49.8099 51.0015 52.3689 51.0015H53.4656V44.023H52.7271L52.7301 44.0215ZM35.255 38.9627V12.0374C35.255 8.47632 36.8608 7.12354 39.4184 7.12354C41.9759 7.12354 43.5818 8.47632 43.5818 12.0374V38.9627C43.5818 42.5252 41.9759 43.8779 39.4184 43.8779C36.8608 43.8779 35.255 42.5252 35.255 38.9627Z" fill="white"></path>
</g>
</svg>